<svg id="Layer_1" data-name="Layer 1" xmlns="http://www.w3.org/2000/svg" viewBox="0 0 500 500"><defs><style>.cls-1{fill:#ffce34;}</style></defs><rect class="cls-1" x="230.77" y="134.62" width="19.23" height="19.23"/><rect class="cls-1" x="230.77" y="153.85" width="19.23" height="19.23"/><rect class="cls-1" x="230.77" y="173.08" width="19.23" height="19.23"/><rect class="cls-1" x="230.77" y="192.31" width="19.23" height="19.23"/><rect class="cls-1" x="230.77" y="211.54" width="19.23" height="19.23"/><rect class="cls-1" x="250" y="134.62" width="19.23" height="19.23"/><rect class="cls-1" x="250" y="153.85" width="19.23" height="19.23"/><rect class="cls-1" x="250" y="173.08" width="19.23" height="19.23"/><rect class="cls-1" x="250" y="192.31" width="19.23" height="19.23"/><rect class="cls-1" x="250" y="211.54" width="19.23" height="19.23"/><rect class="cls-1" x="269.23" y="134.62" width="19.23" height="19.23"/><rect class="cls-1" x="269.23" y="153.85" width="19.23" height="19.23"/><rect class="cls-1" x="269.23" y="211.54" width="19.23" height="19.23"/><rect class="cls-1" x="269.23" y="192.31" width="19.23" height="19.23"/><rect class="cls-1" x="288.46" y="153.85" width="19.23" height="19.23"/><rect class="cls-1" x="288.46" y="192.31" width="19.23" height="19.23"/><rect class="cls-1" x="288.46" y="173.08" width="19.23" height="19.23"/><rect class="cls-1" x="269.23" y="173.08" width="19.23" height="19.23"/><rect class="cls-1" x="134.62" y="403.85" width="19.23" height="19.23"/><rect class="cls-1" x="134.62" y="423.08" width="19.23" height="19.23"/><rect class="cls-1" x="134.62" y="442.31" width="19.23" height="19.23"/><rect class="cls-1" x="134.62" y="461.54" width="19.23" height="19.23"/><rect class="cls-1" x="134.62" y="480.77" width="19.23" height="19.23"/><rect class="cls-1" x="153.85" width="19.23" height="19.23"/><rect class="cls-1" x="153.85" y="19.23" width="19.23" height="19.23"/><rect class="cls-1" x="153.85" y="38.46" width="19.23" height="19.23"/><rect class="cls-1" x="153.85" y="57.69" width="19.23" height="19.23"/><rect class="cls-1" x="153.85" y="76.92" width="19.23" height="19.23"/><rect class="cls-1" x="153.85" y="96.15" width="19.23" height="19.23"/><rect class="cls-1" x="153.85" y="115.38" width="19.23" height="19.24"/><rect class="cls-1" x="153.85" y="134.62" width="19.23" height="19.23"/><rect class="cls-1" x="153.85" y="153.85" width="19.23" height="19.23"/><rect class="cls-1" x="153.85" y="173.08" width="19.23" height="19.23"/><rect class="cls-1" x="153.85" y="192.31" width="19.23" height="19.23"/><rect class="cls-1" x="153.85" y="211.54" width="19.23" height="19.23"/><rect class="cls-1" x="153.85" y="230.77" width="19.23" height="19.23"/><rect class="cls-1" x="153.85" y="250" width="19.23" height="19.23"/><rect class="cls-1" x="153.85" y="269.23" width="19.23" height="19.23"/><rect class="cls-1" x="153.85" y="288.46" width="19.23" height="19.23"/><rect class="cls-1" x="153.85" y="307.69" width="19.23" height="19.23"/><rect class="cls-1" x="153.85" y="326.92" width="19.23" height="19.23"/><rect class="cls-1" x="153.85" y="346.15" width="19.23" height="19.23"/><rect class="cls-1" x="153.85" y="365.38" width="19.23" height="19.24"/><rect class="cls-1" width="19.23" height="19.23"/><rect class="cls-1" y="19.23" width="19.23" height="19.23"/><rect class="cls-1" y="38.46" width="19.23" height="19.23"/><rect class="cls-1" y="57.69" width="19.23" height="19.23"/><rect class="cls-1" y="76.92" width="19.23" height="19.23"/><rect class="cls-1" y="96.15" width="19.23" height="19.23"/><rect class="cls-1" y="115.38" width="19.23" height="19.24"/><rect class="cls-1" y="134.62" width="19.23" height="19.23"/><rect class="cls-1" y="153.85" width="19.23" height="19.23"/><rect class="cls-1" y="173.08" width="19.23" height="19.23"/><rect class="cls-1" y="192.31" width="19.23" height="19.23"/><rect class="cls-1" y="211.54" width="19.23" height="19.23"/><rect class="cls-1" y="230.77" width="19.23" height="19.23"/><rect class="cls-1" y="250" width="19.23" height="19.23"/><rect class="cls-1" y="269.23" width="19.23" height="19.23"/><rect class="cls-1" y="288.46" width="19.23" height="19.23"/><rect class="cls-1" y="307.69" width="19.23" height="19.23"/><rect class="cls-1" y="326.92" width="19.23" height="19.23"/><rect class="cls-1" y="346.15" width="19.23" height="19.23"/><rect class="cls-1" y="365.38" width="19.23" height="19.24"/><rect class="cls-1" y="384.62" width="19.23" height="19.23"/><rect class="cls-1" y="403.85" width="19.23" height="19.23"/><rect class="cls-1" y="423.08" width="19.23" height="19.23"/><rect class="cls-1" y="442.31" width="19.23" height="19.23"/><rect class="cls-1" y="461.54" width="19.23" height="19.23"/><rect class="cls-1" y="480.77" width="19.23" height="19.23"/><rect class="cls-1" x="19.23" width="19.23" height="19.23"/><rect class="cls-1" x="19.23" y="19.23" width="19.23" height="19.23"/><rect class="cls-1" x="19.23" y="38.46" width="19.23" height="19.23"/><rect class="cls-1" x="19.23" y="57.69" width="19.23" height="19.23"/><rect class="cls-1" x="19.23" y="76.92" width="19.23" height="19.23"/><rect class="cls-1" x="19.23" y="96.15" width="19.23" height="19.23"/><rect class="cls-1" x="19.23" y="115.38" width="19.23" height="19.24"/><rect class="cls-1" x="19.23" y="134.62" width="19.23" height="19.23"/><rect class="cls-1" x="19.23" y="153.85" width="19.23" height="19.23"/><rect class="cls-1" x="19.23" y="173.08" width="19.23" height="19.23"/><rect class="cls-1" x="19.23" y="192.31" width="19.23" height="19.23"/><rect class="cls-1" x="19.23" y="211.54" width="19.23" height="19.23"/><rect class="cls-1" x="19.23" y="230.77" width="19.23" height="19.23"/><rect class="cls-1" x="19.23" y="250" width="19.23" height="19.23"/><rect class="cls-1" x="19.23" y="269.23" width="19.23" height="19.23"/><rect class="cls-1" x="19.23" y="288.46" width="19.23" height="19.23"/><rect class="cls-1" x="19.23" y="307.69" width="19.23" height="19.23"/><rect class="cls-1" x="19.23" y="326.92" width="19.23" height="19.23"/><rect class="cls-1" x="19.23" y="346.15" width="19.23" height="19.23"/><rect class="cls-1" x="19.23" y="365.38" width="19.23" height="19.24"/><rect class="cls-1" x="19.23" y="384.62" width="19.23" height="19.23"/><rect class="cls-1" x="19.23" y="403.85" width="19.23" height="19.23"/><rect class="cls-1" x="19.23" y="423.08" width="19.23" height="19.23"/><rect class="cls-1" x="19.23" y="442.31" width="19.23" height="19.23"/><rect class="cls-1" x="19.23" y="461.54" width="19.23" height="19.23"/><rect class="cls-1" x="19.23" y="480.77" width="19.23" height="19.23"/><rect class="cls-1" x="38.46" width="19.23" height="19.23"/><rect class="cls-1" x="38.46" y="19.23" width="19.23" height="19.23"/><rect class="cls-1" x="38.46" y="38.46" width="19.23" height="19.23"/><rect class="cls-1" x="38.46" y="57.69" width="19.23" height="19.23"/><rect class="cls-1" x="38.46" y="76.92" width="19.23" height="19.23"/><rect class="cls-1" x="38.46" y="96.15" width="19.23" height="19.23"/><rect class="cls-1" x="38.46" y="115.38" width="19.23" height="19.24"/><rect class="cls-1" x="38.46" y="134.62" width="19.23" height="19.23"/><rect class="cls-1" x="38.46" y="153.85" width="19.23" height="19.23"/><rect class="cls-1" x="38.46" y="173.08" width="19.23" height="19.23"/><rect class="cls-1" x="38.46" y="192.31" width="19.23" height="19.23"/><rect class="cls-1" x="38.46" y="211.54" width="19.23" height="19.23"/><rect class="cls-1" x="38.46" y="230.77" width="19.23" height="19.23"/><rect class="cls-1" x="38.46" y="250" width="19.23" height="19.23"/><rect class="cls-1" x="38.46" y="269.23" width="19.23" height="19.23"/><rect class="cls-1" x="38.46" y="288.46" width="19.23" height="19.23"/><rect class="cls-1" x="38.46" y="307.69" width="19.23" height="19.23"/><rect class="cls-1" x="38.46" y="326.92" width="19.23" height="19.23"/><rect class="cls-1" x="38.46" y="346.15" width="19.23" height="19.23"/><rect class="cls-1" x="38.46" y="365.38" width="19.23" height="19.24"/><rect class="cls-1" x="38.46" y="384.62" width="19.23" height="19.23"/><rect class="cls-1" x="38.46" y="403.85" width="19.23" height="19.23"/><rect class="cls-1" x="38.46" y="423.08" width="19.23" height="19.23"/><rect class="cls-1" x="38.46" y="442.31" width="19.23" height="19.23"/><rect class="cls-1" x="38.46" y="461.54" width="19.23" height="19.23"/><rect class="cls-1" x="38.46" y="480.77" width="19.23" height="19.23"/><rect class="cls-1" x="57.69" width="19.23" height="19.23"/><rect class="cls-1" x="57.69" y="19.23" width="19.23" height="19.23"/><rect class="cls-1" x="57.69" y="38.46" width="19.23" height="19.23"/><rect class="cls-1" x="57.69" y="57.69" width="19.23" height="19.23"/><rect class="cls-1" x="57.69" y="76.92" width="19.23" height="19.23"/><rect class="cls-1" x="57.69" y="96.15" width="19.23" height="19.23"/><rect class="cls-1" x="57.69" y="115.38" width="19.23" height="19.24"/><rect class="cls-1" x="57.69" y="134.62" width="19.23" height="19.23"/><rect class="cls-1" x="57.69" y="153.85" width="19.23" height="19.23"/><rect class="cls-1" x="57.69" y="173.08" width="19.23" height="19.23"/><rect class="cls-1" x="57.69" y="192.31" width="19.23" height="19.23"/><rect class="cls-1" x="57.69" y="211.54" width="19.23" height="19.23"/><rect class="cls-1" x="57.69" y="230.77" width="19.23" height="19.23"/><rect class="cls-1" x="57.69" y="250" width="19.23" height="19.23"/><rect class="cls-1" x="57.69" y="269.23" width="19.23" height="19.23"/><rect class="cls-1" x="57.69" y="288.46" width="19.23" height="19.23"/><rect class="cls-1" x="57.69" y="307.69" width="19.23" height="19.23"/><rect class="cls-1" x="57.69" y="326.92" width="19.23" height="19.23"/><rect class="cls-1" x="57.69" y="346.15" width="19.23" height="19.23"/><rect class="cls-1" x="57.69" y="365.38" width="19.23" height="19.24"/><rect class="cls-1" x="57.69" y="384.62" width="19.23" height="19.23"/><rect class="cls-1" x="57.69" y="403.85" width="19.23" height="19.23"/><rect class="cls-1" x="57.69" y="423.08" width="19.23" height="19.23"/><rect class="cls-1" x="57.69" y="442.31" width="19.23" height="19.23"/><rect class="cls-1" x="57.69" y="461.54" width="19.23" height="19.23"/><rect class="cls-1" x="57.69" y="480.77" width="19.23" height="19.23"/><rect class="cls-1" x="76.92" width="19.23" height="19.23"/><rect class="cls-1" x="76.92" y="19.23" width="19.23" height="19.23"/><rect class="cls-1" x="76.92" y="38.46" width="19.23" height="19.23"/><rect class="cls-1" x="76.92" y="57.69" width="19.23" height="19.23"/><rect class="cls-1" x="76.92" y="76.92" width="19.23" height="19.23"/><rect class="cls-1" x="76.92" y="96.15" width="19.23" height="19.23"/><rect class="cls-1" x="76.92" y="115.38" width="19.23" height="19.24"/><rect class="cls-1" x="76.92" y="134.62" width="19.23" height="19.23"/><rect class="cls-1" x="76.92" y="153.85" width="19.23" height="19.23"/><rect class="cls-1" x="76.92" y="173.08" width="19.23" height="19.23"/><rect class="cls-1" x="76.92" y="192.31" width="19.23" height="19.23"/><rect class="cls-1" x="76.92" y="211.54" width="19.23" height="19.23"/><rect class="cls-1" x="76.92" y="230.77" width="19.23" height="19.23"/><rect class="cls-1" x="76.92" y="250" width="19.23" height="19.23"/><rect class="cls-1" x="76.92" y="269.23" width="19.23" height="19.23"/><rect class="cls-1" x="76.92" y="288.46" width="19.23" height="19.23"/><rect class="cls-1" x="76.92" y="307.69" width="19.23" height="19.23"/><rect class="cls-1" x="76.92" y="326.92" width="19.23" height="19.23"/><rect class="cls-1" x="76.92" y="346.15" width="19.23" height="19.23"/><rect class="cls-1" x="76.92" y="365.38" width="19.23" height="19.24"/><rect class="cls-1" x="76.92" y="384.62" width="19.23" height="19.23"/><rect class="cls-1" x="76.92" y="403.85" width="19.23" height="19.23"/><rect class="cls-1" x="76.92" y="423.08" width="19.23" height="19.23"/><rect class="cls-1" x="76.92" y="442.31" width="19.23" height="19.23"/><rect class="cls-1" x="76.92" y="461.54" width="19.23" height="19.23"/><rect class="cls-1" x="76.92" y="480.77" width="19.23" height="19.23"/><rect class="cls-1" x="96.15" width="19.23" height="19.23"/><rect class="cls-1" x="96.15" y="19.23" width="19.23" height="19.23"/><rect class="cls-1" x="96.15" y="38.46" width="19.23" height="19.23"/><rect class="cls-1" x="96.15" y="57.69" width="19.23" height="19.23"/><rect class="cls-1" x="96.15" y="76.92" width="19.23" height="19.23"/><rect class="cls-1" x="96.15" y="96.15" width="19.23" height="19.23"/><rect class="cls-1" x="96.15" y="115.38" width="19.23" height="19.24"/><rect class="cls-1" x="96.15" y="134.62" width="19.23" height="19.23"/><rect class="cls-1" x="96.15" y="153.85" width="19.23" height="19.23"/><rect class="cls-1" x="96.15" y="173.08" width="19.23" height="19.23"/><rect class="cls-1" x="96.15" y="192.31" width="19.23" height="19.23"/><rect class="cls-1" x="96.15" y="211.54" width="19.23" height="19.23"/><rect class="cls-1" x="96.15" y="230.77" width="19.23" height="19.23"/><rect class="cls-1" x="96.15" y="250" width="19.23" height="19.23"/><rect class="cls-1" x="96.15" y="269.23" width="19.23" height="19.23"/><rect class="cls-1" x="96.15" y="288.46" width="19.23" height="19.23"/><rect class="cls-1" x="96.15" y="307.69" width="19.23" height="19.23"/><rect class="cls-1" x="96.15" y="326.92" width="19.23" height="19.23"/><rect class="cls-1" x="96.15" y="346.15" width="19.23" height="19.23"/><rect class="cls-1" x="96.15" y="365.38" width="19.23" height="19.24"/><rect class="cls-1" x="96.15" y="384.62" width="19.23" height="19.23"/><rect class="cls-1" x="96.15" y="403.85" width="19.23" height="19.23"/><rect class="cls-1" x="96.15" y="423.08" width="19.23" height="19.23"/><rect class="cls-1" x="96.15" y="442.31" width="19.23" height="19.23"/><rect class="cls-1" x="96.15" y="461.54" width="19.23" height="19.23"/><rect class="cls-1" x="96.15" y="480.77" width="19.23" height="19.23"/><rect class="cls-1" x="115.38" width="19.24" height="19.23"/><rect class="cls-1" x="115.38" y="19.23" width="19.24" height="19.23"/><rect class="cls-1" x="115.38" y="38.46" width="19.24" height="19.23"/><rect class="cls-1" x="115.38" y="57.69" width="19.24" height="19.23"/><rect class="cls-1" x="115.38" y="76.92" width="19.24" height="19.23"/><rect class="cls-1" x="115.38" y="96.15" width="19.24" height="19.23"/><rect class="cls-1" x="115.38" y="115.38" width="19.24" height="19.24"/><rect class="cls-1" x="115.38" y="134.62" width="19.24" height="19.23"/><rect class="cls-1" x="115.38" y="153.85" width="19.24" height="19.23"/><rect class="cls-1" x="115.38" y="173.08" width="19.24" height="19.23"/><rect class="cls-1" x="115.38" y="192.31" width="19.24" height="19.23"/><rect class="cls-1" x="115.38" y="211.54" width="19.24" height="19.23"/><rect class="cls-1" x="115.38" y="230.77" width="19.24" height="19.23"/><rect class="cls-1" x="115.38" y="250" width="19.24" height="19.23"/><rect class="cls-1" x="115.38" y="269.23" width="19.24" height="19.23"/><rect class="cls-1" x="115.38" y="288.46" width="19.24" height="19.23"/><rect class="cls-1" x="115.38" y="307.69" width="19.24" height="19.23"/><rect class="cls-1" x="115.38" y="326.92" width="19.24" height="19.23"/><rect class="cls-1" x="115.38" y="346.15" width="19.24" height="19.23"/><rect class="cls-1" x="115.38" y="365.38" width="19.24" height="19.24"/><rect class="cls-1" x="115.38" y="480.77" width="19.24" height="19.23"/><rect class="cls-1" x="115.38" y="461.54" width="19.24" height="19.23"/><rect class="cls-1" x="115.38" y="442.31" width="19.24" height="19.23"/><rect class="cls-1" x="115.38" y="423.08" width="19.24" height="19.23"/><rect class="cls-1" x="115.38" y="403.85" width="19.24" height="19.23"/><rect class="cls-1" x="115.38" y="384.62" width="19.24" height="19.23"/><rect class="cls-1" x="134.62" width="19.23" height="19.23"/><rect class="cls-1" x="134.62" y="19.23" width="19.23" height="19.23"/><rect class="cls-1" x="134.62" y="38.46" width="19.23" height="19.23"/><rect class="cls-1" x="134.62" y="57.69" width="19.23" height="19.23"/><rect class="cls-1" x="134.62" y="76.92" width="19.23" height="19.23"/><rect class="cls-1" x="134.62" y="96.15" width="19.23" height="19.23"/><rect class="cls-1" x="134.62" y="115.38" width="19.23" height="19.24"/><rect class="cls-1" x="134.62" y="134.62" width="19.23" height="19.23"/><rect class="cls-1" x="134.62" y="153.85" width="19.23" height="19.23"/><rect class="cls-1" x="134.62" y="173.08" width="19.23" height="19.23"/><rect class="cls-1" x="134.62" y="192.31" width="19.23" height="19.23"/><rect class="cls-1" x="134.62" y="211.54" width="19.23" height="19.23"/><rect class="cls-1" x="134.62" y="230.77" width="19.23" height="19.23"/><rect class="cls-1" x="134.62" y="250" width="19.23" height="19.23"/><rect class="cls-1" x="134.62" y="269.23" width="19.23" height="19.23"/><rect class="cls-1" x="134.62" y="288.46" width="19.23" height="19.23"/><rect class="cls-1" x="134.62" y="307.69" width="19.23" height="19.23"/><rect class="cls-1" x="134.62" y="326.92" width="19.23" height="19.23"/><rect class="cls-1" x="134.62" y="346.15" width="19.23" height="19.23"/><rect class="cls-1" x="134.62" y="365.38" width="19.23" height="19.24"/><rect class="cls-1" x="134.62" y="384.62" width="19.23" height="19.23"/><rect class="cls-1" x="153.85" y="384.62" width="19.23" height="19.23"/><rect class="cls-1" x="153.85" y="403.85" width="19.23" height="19.23"/><rect class="cls-1" x="153.85" y="423.08" width="19.23" height="19.23"/><rect class="cls-1" x="153.85" y="442.31" width="19.23" height="19.23"/><rect class="cls-1" x="153.85" y="461.54" width="19.23" height="19.23"/><rect class="cls-1" x="153.85" y="480.77" width="19.23" height="19.23"/><rect class="cls-1" x="173.08" width="19.23" height="19.23"/><rect class="cls-1" x="173.08" y="19.23" width="19.23" height="19.23"/><rect class="cls-1" x="173.08" y="38.46" width="19.23" height="19.23"/><rect class="cls-1" x="173.08" y="57.69" width="19.23" height="19.23"/><rect class="cls-1" x="173.08" y="403.85" width="19.23" height="19.23"/><rect class="cls-1" x="173.08" y="423.08" width="19.23" height="19.23"/><rect class="cls-1" x="173.08" y="442.31" width="19.23" height="19.23"/><rect class="cls-1" x="173.08" y="461.54" width="19.23" height="19.23"/><rect class="cls-1" x="173.08" y="480.77" width="19.23" height="19.23"/><rect class="cls-1" x="192.31" width="19.23" height="19.23"/><rect class="cls-1" x="192.31" y="19.23" width="19.23" height="19.23"/><rect class="cls-1" x="192.31" y="38.46" width="19.23" height="19.23"/><rect class="cls-1" x="192.31" y="57.69" width="19.23" height="19.23"/><rect class="cls-1" x="192.31" y="403.85" width="19.23" height="19.23"/><rect class="cls-1" x="192.31" y="423.08" width="19.23" height="19.23"/><rect class="cls-1" x="192.31" y="442.31" width="19.23" height="19.23"/><rect class="cls-1" x="192.31" y="461.54" width="19.23" height="19.23"/><rect class="cls-1" x="192.31" y="480.77" width="19.23" height="19.23"/><rect class="cls-1" x="211.54" width="19.23" height="19.23"/><rect class="cls-1" x="211.54" y="19.23" width="19.23" height="19.23"/><rect class="cls-1" x="211.54" y="38.46" width="19.23" height="19.23"/><rect class="cls-1" x="211.54" y="57.69" width="19.23" height="19.23"/><rect class="cls-1" x="211.54" y="403.85" width="19.23" height="19.23"/><rect class="cls-1" x="211.54" y="423.08" width="19.23" height="19.23"/><rect class="cls-1" x="211.54" y="442.31" width="19.23" height="19.23"/><rect class="cls-1" x="211.54" y="461.54" width="19.23" height="19.23"/><rect class="cls-1" x="211.54" y="480.77" width="19.23" height="19.23"/><rect class="cls-1" x="230.77" width="19.23" height="19.23"/><rect class="cls-1" x="230.77" y="19.23" width="19.23" height="19.23"/><rect class="cls-1" x="230.77" y="38.46" width="19.23" height="19.23"/><rect class="cls-1" x="230.77" y="57.69" width="19.23" height="19.23"/><rect class="cls-1" x="230.77" y="288.46" width="19.23" height="19.23"/><rect class="cls-1" x="230.77" y="307.69" width="19.23" height="19.23"/><rect class="cls-1" x="230.77" y="326.92" width="19.23" height="19.23"/><rect class="cls-1" x="230.77" y="346.15" width="19.23" height="19.23"/><rect class="cls-1" x="230.77" y="365.38" width="19.23" height="19.24"/><rect class="cls-1" x="230.77" y="384.62" width="19.23" height="19.23"/><rect class="cls-1" x="230.77" y="403.85" width="19.23" height="19.23"/><rect class="cls-1" x="230.77" y="423.08" width="19.23" height="19.23"/><rect class="cls-1" x="230.77" y="442.31" width="19.23" height="19.23"/><rect class="cls-1" x="230.77" y="461.54" width="19.23" height="19.23"/><rect class="cls-1" x="230.77" y="480.77" width="19.23" height="19.23"/><rect class="cls-1" x="250" width="19.23" height="19.23"/><rect class="cls-1" x="250" y="19.23" width="19.23" height="19.23"/><rect class="cls-1" x="250" y="38.46" width="19.23" height="19.23"/><rect class="cls-1" x="250" y="57.69" width="19.23" height="19.23"/><rect class="cls-1" x="250" y="288.46" width="19.23" height="19.23"/><rect class="cls-1" x="250" y="307.69" width="19.23" height="19.23"/><rect class="cls-1" x="250" y="326.92" width="19.23" height="19.23"/><rect class="cls-1" x="250" y="346.15" width="19.23" height="19.23"/><rect class="cls-1" x="250" y="365.38" width="19.23" height="19.24"/><rect class="cls-1" x="250" y="384.62" width="19.23" height="19.23"/><rect class="cls-1" x="250" y="403.85" width="19.23" height="19.23"/><rect class="cls-1" x="250" y="423.08" width="19.23" height="19.23"/><rect class="cls-1" x="250" y="442.31" width="19.23" height="19.23"/><rect class="cls-1" x="250" y="461.54" width="19.23" height="19.23"/><rect class="cls-1" x="250" y="480.77" width="19.23" height="19.23"/><rect class="cls-1" x="269.23" width="19.23" height="19.23"/><rect class="cls-1" x="269.23" y="19.23" width="19.23" height="19.23"/><rect class="cls-1" x="269.23" y="38.46" width="19.23" height="19.23"/><rect class="cls-1" x="269.23" y="57.69" width="19.23" height="19.23"/><rect class="cls-1" x="269.23" y="288.46" width="19.23" height="19.23"/><rect class="cls-1" x="269.23" y="307.69" width="19.23" height="19.23"/><rect class="cls-1" x="269.23" y="326.92" width="19.23" height="19.23"/><rect class="cls-1" x="269.23" y="346.15" width="19.23" height="19.23"/><rect class="cls-1" x="269.23" y="365.38" width="19.23" height="19.24"/><rect class="cls-1" x="269.23" y="384.62" width="19.23" height="19.23"/><rect class="cls-1" x="269.23" y="403.85" width="19.23" height="19.23"/><rect class="cls-1" x="269.23" y="423.08" width="19.23" height="19.23"/><rect class="cls-1" x="269.23" y="442.31" width="19.23" height="19.23"/><rect class="cls-1" x="269.23" y="461.54" width="19.23" height="19.23"/><rect class="cls-1" x="269.23" y="480.77" width="19.23" height="19.23"/><rect class="cls-1" x="288.46" width="19.23" height="19.23"/><rect class="cls-1" x="288.46" y="19.23" width="19.23" height="19.23"/><rect class="cls-1" x="288.46" y="38.46" width="19.23" height="19.23"/><rect class="cls-1" x="288.46" y="57.69" width="19.23" height="19.23"/><rect class="cls-1" x="288.46" y="288.46" width="19.23" height="19.23"/><rect class="cls-1" x="288.46" y="307.69" width="19.23" height="19.23"/><rect class="cls-1" x="288.46" y="326.92" width="19.23" height="19.23"/><rect class="cls-1" x="288.46" y="346.15" width="19.23" height="19.23"/><rect class="cls-1" x="288.46" y="365.38" width="19.23" height="19.24"/><rect class="cls-1" x="288.46" y="384.62" width="19.23" height="19.23"/><rect class="cls-1" x="288.46" y="403.85" width="19.23" height="19.23"/><rect class="cls-1" x="288.46" y="423.08" width="19.23" height="19.23"/><rect class="cls-1" x="288.46" y="442.31" width="19.23" height="19.23"/><rect class="cls-1" x="288.46" y="461.54" width="19.23" height="19.23"/><rect class="cls-1" x="288.46" y="480.77" width="19.23" height="19.23"/><rect class="cls-1" x="307.69" width="19.23" height="19.23"/><rect class="cls-1" x="307.69" y="19.23" width="19.23" height="19.23"/><rect class="cls-1" x="307.69" y="38.46" width="19.23" height="19.23"/><rect class="cls-1" x="307.69" y="57.69" width="19.23" height="19.23"/><rect class="cls-1" x="307.69" y="288.46" width="19.23" height="19.23"/><rect class="cls-1" x="307.69" y="307.69" width="19.23" height="19.23"/><rect class="cls-1" x="307.69" y="326.92" width="19.23" height="19.23"/><rect class="cls-1" x="307.69" y="346.15" width="19.23" height="19.23"/><rect class="cls-1" x="307.69" y="365.38" width="19.23" height="19.24"/><rect class="cls-1" x="307.69" y="384.62" width="19.23" height="19.23"/><rect class="cls-1" x="307.69" y="403.85" width="19.23" height="19.23"/><rect class="cls-1" x="307.69" y="423.08" width="19.23" height="19.23"/><rect class="cls-1" x="307.69" y="442.31" width="19.23" height="19.23"/><rect class="cls-1" x="307.69" y="461.54" width="19.23" height="19.23"/><rect class="cls-1" x="307.69" y="480.77" width="19.23" height="19.23"/><rect class="cls-1" x="326.92" width="19.23" height="19.23"/><rect class="cls-1" x="326.92" y="19.23" width="19.23" height="19.23"/><rect class="cls-1" x="326.92" y="38.46" width="19.23" height="19.23"/><rect class="cls-1" x="326.92" y="57.69" width="19.23" height="19.23"/><rect class="cls-1" x="326.92" y="76.92" width="19.23" height="19.23"/><rect class="cls-1" x="326.92" y="269.23" width="19.23" height="19.23"/><rect class="cls-1" x="326.92" y="288.46" width="19.23" height="19.23"/><rect class="cls-1" x="326.92" y="307.69" width="19.23" height="19.23"/><rect class="cls-1" x="326.92" y="326.92" width="19.23" height="19.23"/><rect class="cls-1" x="326.92" y="346.15" width="19.23" height="19.23"/><rect class="cls-1" x="326.92" y="365.38" width="19.23" height="19.24"/><rect class="cls-1" x="326.92" y="384.62" width="19.23" height="19.23"/><rect class="cls-1" x="326.92" y="403.85" width="19.23" height="19.23"/><rect class="cls-1" x="326.92" y="423.08" width="19.23" height="19.23"/><rect class="cls-1" x="326.92" y="442.31" width="19.23" height="19.23"/><rect class="cls-1" x="326.92" y="461.54" width="19.23" height="19.23"/><rect class="cls-1" x="326.92" y="480.77" width="19.23" height="19.23"/><rect class="cls-1" x="346.15" width="19.23" height="19.23"/><rect class="cls-1" x="346.15" y="19.23" width="19.23" height="19.23"/><rect class="cls-1" x="346.15" y="38.46" width="19.23" height="19.23"/><rect class="cls-1" x="346.15" y="57.69" width="19.23" height="19.23"/><rect class="cls-1" x="346.15" y="76.92" width="19.23" height="19.23"/><rect class="cls-1" x="346.15" y="96.15" width="19.23" height="19.23"/><rect class="cls-1" x="346.15" y="250" width="19.23" height="19.23"/><rect class="cls-1" x="346.15" y="269.23" width="19.23" height="19.23"/><rect class="cls-1" x="346.15" y="288.46" width="19.23" height="19.23"/><rect class="cls-1" x="346.15" y="307.69" width="19.23" height="19.23"/><rect class="cls-1" x="346.15" y="326.92" width="19.23" height="19.23"/><rect class="cls-1" x="346.15" y="346.15" width="19.23" height="19.23"/><rect class="cls-1" x="346.15" y="365.38" width="19.23" height="19.24"/><rect class="cls-1" x="346.15" y="384.62" width="19.23" height="19.23"/><rect class="cls-1" x="346.15" y="403.85" width="19.23" height="19.23"/><rect class="cls-1" x="346.15" y="423.08" width="19.23" height="19.23"/><rect class="cls-1" x="346.15" y="442.31" width="19.23" height="19.23"/><rect class="cls-1" x="346.15" y="461.54" width="19.23" height="19.23"/><rect class="cls-1" x="346.15" y="480.77" width="19.23" height="19.23"/><rect class="cls-1" x="365.38" width="19.24" height="19.23"/><rect class="cls-1" x="365.38" y="19.23" width="19.24" height="19.23"/><rect class="cls-1" x="365.38" y="38.46" width="19.24" height="19.23"/><rect class="cls-1" x="365.38" y="57.69" width="19.24" height="19.23"/><rect class="cls-1" x="365.38" y="76.92" width="19.24" height="19.23"/><rect class="cls-1" x="365.38" y="96.15" width="19.24" height="19.23"/><rect class="cls-1" x="365.38" y="115.38" width="19.24" height="19.24"/><rect class="cls-1" x="365.38" y="134.62" width="19.24" height="19.23"/><rect class="cls-1" x="365.38" y="153.85" width="19.24" height="19.23"/><rect class="cls-1" x="365.38" y="173.08" width="19.24" height="19.23"/><rect class="cls-1" x="365.38" y="192.31" width="19.24" height="19.23"/><rect class="cls-1" x="365.38" y="211.54" width="19.24" height="19.23"/><rect class="cls-1" x="365.38" y="230.77" width="19.24" height="19.23"/><rect class="cls-1" x="365.38" y="250" width="19.24" height="19.23"/><rect class="cls-1" x="365.38" y="269.23" width="19.24" height="19.23"/><rect class="cls-1" x="365.38" y="288.46" width="19.24" height="19.23"/><rect class="cls-1" x="365.38" y="307.69" width="19.24" height="19.23"/><rect class="cls-1" x="365.38" y="326.92" width="19.24" height="19.23"/><rect class="cls-1" x="365.38" y="346.15" width="19.24" height="19.23"/><rect class="cls-1" x="365.38" y="365.38" width="19.24" height="19.24"/><rect class="cls-1" x="365.38" y="384.62" width="19.24" height="19.23"/><rect class="cls-1" x="365.38" y="403.85" width="19.24" height="19.23"/><rect class="cls-1" x="365.38" y="423.08" width="19.24" height="19.23"/><rect class="cls-1" x="365.38" y="442.31" width="19.24" height="19.23"/><rect class="cls-1" x="365.38" y="461.54" width="19.24" height="19.23"/><rect class="cls-1" x="365.38" y="480.77" width="19.24" height="19.23"/><rect class="cls-1" x="384.62" width="19.23" height="19.23"/><rect class="cls-1" x="384.62" y="19.23" width="19.23" height="19.23"/><rect class="cls-1" x="384.62" y="38.46" width="19.23" height="19.23"/><rect class="cls-1" x="384.62" y="57.69" width="19.23" height="19.23"/><rect class="cls-1" x="384.62" y="76.92" width="19.23" height="19.23"/><rect class="cls-1" x="384.62" y="96.15" width="19.23" height="19.23"/><rect class="cls-1" x="384.62" y="115.38" width="19.23" height="19.24"/><rect class="cls-1" x="384.62" y="134.62" width="19.23" height="19.23"/><rect class="cls-1" x="384.62" y="153.85" width="19.23" height="19.23"/><rect class="cls-1" x="384.62" y="173.08" width="19.23" height="19.23"/><rect class="cls-1" x="384.62" y="192.31" width="19.23" height="19.23"/><rect class="cls-1" x="384.62" y="211.54" width="19.23" height="19.23"/><rect class="cls-1" x="384.62" y="230.77" width="19.23" height="19.23"/><rect class="cls-1" x="384.62" y="250" width="19.23" height="19.23"/><rect class="cls-1" x="384.62" y="269.23" width="19.23" height="19.23"/><rect class="cls-1" x="384.62" y="288.46" width="19.23" height="19.23"/><rect class="cls-1" x="384.62" y="307.69" width="19.23" height="19.23"/><rect class="cls-1" x="384.62" y="326.92" width="19.23" height="19.23"/><rect class="cls-1" x="384.62" y="346.15" width="19.23" height="19.23"/><rect class="cls-1" x="384.62" y="384.62" width="19.23" height="19.23"/><rect class="cls-1" x="384.62" y="403.85" width="19.23" height="19.23"/><rect class="cls-1" x="384.62" y="423.08" width="19.23" height="19.23"/><rect class="cls-1" x="384.62" y="442.31" width="19.23" height="19.23"/><rect class="cls-1" x="384.62" y="461.54" width="19.23" height="19.23"/><rect class="cls-1" x="384.62" y="480.77" width="19.23" height="19.23"/><rect class="cls-1" x="403.85" width="19.23" height="19.23"/><rect class="cls-1" x="403.85" y="19.23" width="19.23" height="19.23"/><rect class="cls-1" x="403.85" y="38.46" width="19.23" height="19.23"/><rect class="cls-1" x="403.85" y="57.69" width="19.23" height="19.23"/><rect class="cls-1" x="403.85" y="76.92" width="19.23" height="19.23"/><rect class="cls-1" x="403.85" y="96.15" width="19.23" height="19.23"/><rect class="cls-1" x="403.85" y="115.38" width="19.23" height="19.24"/><rect class="cls-1" x="403.85" y="134.62" width="19.23" height="19.23"/><rect class="cls-1" x="403.85" y="153.85" width="19.23" height="19.23"/><rect class="cls-1" x="403.85" y="173.08" width="19.23" height="19.23"/><rect class="cls-1" x="403.85" y="192.31" width="19.23" height="19.23"/><rect class="cls-1" x="403.85" y="211.54" width="19.23" height="19.23"/><rect class="cls-1" x="403.85" y="230.77" width="19.23" height="19.23"/><rect class="cls-1" x="403.85" y="250" width="19.23" height="19.23"/><rect class="cls-1" x="403.85" y="269.23" width="19.23" height="19.23"/><rect class="cls-1" x="403.85" y="288.46" width="19.23" height="19.23"/><rect class="cls-1" x="403.85" y="307.69" width="19.23" height="19.23"/><rect class="cls-1" x="403.85" y="326.92" width="19.23" height="19.23"/><rect class="cls-1" x="403.85" y="346.15" width="19.23" height="19.23"/><rect class="cls-1" x="403.85" y="384.62" width="19.23" height="19.23"/><rect class="cls-1" x="403.85" y="403.85" width="19.23" height="19.23"/><rect class="cls-1" x="403.85" y="423.08" width="19.23" height="19.23"/><rect class="cls-1" x="403.85" y="442.31" width="19.23" height="19.23"/><rect class="cls-1" x="403.85" y="461.54" width="19.23" height="19.23"/><rect class="cls-1" x="403.85" y="480.77" width="19.23" height="19.23"/><rect class="cls-1" x="423.08" width="19.23" height="19.23"/><rect class="cls-1" x="423.08" y="19.23" width="19.23" height="19.23"/><rect class="cls-1" x="423.08" y="38.46" width="19.23" height="19.23"/><rect class="cls-1" x="423.08" y="57.69" width="19.23" height="19.23"/><rect class="cls-1" x="423.08" y="76.92" width="19.23" height="19.23"/><rect class="cls-1" x="423.08" y="96.15" width="19.23" height="19.23"/><rect class="cls-1" x="423.08" y="115.38" width="19.23" height="19.24"/><rect class="cls-1" x="423.08" y="134.62" width="19.23" height="19.23"/><rect class="cls-1" x="423.08" y="153.85" width="19.23" height="19.23"/><rect class="cls-1" x="423.08" y="173.08" width="19.23" height="19.23"/><rect class="cls-1" x="423.08" y="192.31" width="19.23" height="19.23"/><rect class="cls-1" x="423.08" y="211.54" width="19.23" height="19.23"/><rect class="cls-1" x="423.08" y="230.77" width="19.23" height="19.23"/><rect class="cls-1" x="423.08" y="250" width="19.23" height="19.23"/><rect class="cls-1" x="423.08" y="269.23" width="19.23" height="19.23"/><rect class="cls-1" x="423.08" y="288.46" width="19.23" height="19.23"/><rect class="cls-1" x="423.08" y="307.69" width="19.23" height="19.23"/><rect class="cls-1" x="423.08" y="326.92" width="19.23" height="19.23"/><rect class="cls-1" x="423.08" y="346.15" width="19.23" height="19.23"/><rect class="cls-1" x="423.08" y="384.62" width="19.23" height="19.23"/><rect class="cls-1" x="423.08" y="403.85" width="19.23" height="19.23"/><rect class="cls-1" x="423.08" y="423.08" width="19.23" height="19.23"/><rect class="cls-1" x="423.08" y="442.31" width="19.23" height="19.23"/><rect class="cls-1" x="423.08" y="461.54" width="19.23" height="19.23"/><rect class="cls-1" x="423.08" y="480.77" width="19.23" height="19.23"/><rect class="cls-1" x="442.31" width="19.23" height="19.23"/><rect class="cls-1" x="442.31" y="19.23" width="19.23" height="19.23"/><rect class="cls-1" x="442.31" y="38.46" width="19.23" height="19.23"/><rect class="cls-1" x="442.31" y="57.69" width="19.23" height="19.23"/><rect class="cls-1" x="442.31" y="76.92" width="19.23" height="19.23"/><rect class="cls-1" x="442.31" y="96.15" width="19.23" height="19.23"/><rect class="cls-1" x="442.31" y="115.38" width="19.23" height="19.24"/><rect class="cls-1" x="442.31" y="134.62" width="19.23" height="19.23"/><rect class="cls-1" x="442.31" y="153.85" width="19.23" height="19.23"/><rect class="cls-1" x="442.31" y="173.08" width="19.23" height="19.23"/><rect class="cls-1" x="442.31" y="192.31" width="19.23" height="19.23"/><rect class="cls-1" x="442.31" y="211.54" width="19.23" height="19.23"/><rect class="cls-1" x="442.31" y="230.77" width="19.23" height="19.23"/><rect class="cls-1" x="442.31" y="250" width="19.23" height="19.23"/><rect class="cls-1" x="442.31" y="269.23" width="19.23" height="19.23"/><rect class="cls-1" x="442.31" y="288.46" width="19.23" height="19.23"/><rect class="cls-1" x="442.31" y="307.69" width="19.23" height="19.23"/><rect class="cls-1" x="442.31" y="326.92" width="19.23" height="19.23"/><rect class="cls-1" x="442.31" y="346.15" width="19.23" height="19.23"/><rect class="cls-1" x="442.31" y="384.62" width="19.23" height="19.23"/><rect class="cls-1" x="442.31" y="403.85" width="19.23" height="19.23"/><rect class="cls-1" x="442.31" y="423.08" width="19.23" height="19.23"/><rect class="cls-1" x="442.31" y="442.31" width="19.23" height="19.23"/><rect class="cls-1" x="442.31" y="461.54" width="19.23" height="19.23"/><rect class="cls-1" x="442.31" y="480.77" width="19.23" height="19.23"/><rect class="cls-1" x="461.54" width="19.23" height="19.23"/><rect class="cls-1" x="461.54" y="19.23" width="19.23" height="19.23"/><rect class="cls-1" x="461.54" y="38.46" width="19.23" height="19.23"/><rect class="cls-1" x="461.54" y="57.69" width="19.23" height="19.23"/><rect class="cls-1" x="461.54" y="76.92" width="19.23" height="19.23"/><rect class="cls-1" x="461.54" y="96.15" width="19.23" height="19.23"/><rect class="cls-1" x="461.54" y="115.38" width="19.23" height="19.24"/><rect class="cls-1" x="461.54" y="134.62" width="19.23" height="19.23"/><rect class="cls-1" x="461.54" y="153.85" width="19.23" height="19.23"/><rect class="cls-1" x="461.54" y="173.08" width="19.23" height="19.23"/><rect class="cls-1" x="461.54" y="192.31" width="19.23" height="19.23"/><rect class="cls-1" x="461.54" y="211.54" width="19.23" height="19.23"/><rect class="cls-1" x="461.54" y="230.77" width="19.23" height="19.23"/><rect class="cls-1" x="461.54" y="250" width="19.23" height="19.23"/><rect class="cls-1" x="461.54" y="269.23" width="19.23" height="19.23"/><rect class="cls-1" x="461.54" y="288.46" width="19.23" height="19.23"/><rect class="cls-1" x="461.54" y="307.69" width="19.23" height="19.23"/><rect class="cls-1" x="461.54" y="326.92" width="19.23" height="19.23"/><rect class="cls-1" x="461.54" y="346.15" width="19.23" height="19.23"/><rect class="cls-1" x="461.54" y="384.62" width="19.23" height="19.23"/><rect class="cls-1" x="461.54" y="403.85" width="19.23" height="19.23"/><rect class="cls-1" x="461.54" y="423.08" width="19.23" height="19.23"/><rect class="cls-1" x="461.54" y="442.31" width="19.23" height="19.23"/><rect class="cls-1" x="461.54" y="461.54" width="19.23" height="19.23"/><rect class="cls-1" x="461.54" y="480.77" width="19.23" height="19.23"/><rect class="cls-1" x="480.77" width="19.23" height="19.23"/><rect class="cls-1" x="480.77" y="19.23" width="19.23" height="19.23"/><rect class="cls-1" x="480.77" y="38.46" width="19.23" height="19.23"/><rect class="cls-1" x="480.77" y="57.69" width="19.23" height="19.23"/><rect class="cls-1" x="480.77" y="76.92" width="19.23" height="19.23"/><rect class="cls-1" x="480.77" y="96.15" width="19.23" height="19.23"/><rect class="cls-1" x="480.77" y="115.38" width="19.23" height="19.24"/><rect class="cls-1" x="480.77" y="134.62" width="19.23" height="19.23"/><rect class="cls-1" x="480.77" y="153.85" width="19.23" height="19.23"/><rect class="cls-1" x="480.77" y="173.08" width="19.23" height="19.23"/><rect class="cls-1" x="480.77" y="192.31" width="19.23" height="19.23"/><rect class="cls-1" x="480.77" y="211.54" width="19.23" height="19.23"/><rect class="cls-1" x="480.77" y="230.77" width="19.23" height="19.23"/><rect class="cls-1" x="480.77" y="250" width="19.23" height="19.23"/><rect class="cls-1" x="480.77" y="269.23" width="19.23" height="19.23"/><rect class="cls-1" x="480.77" y="288.46" width="19.23" height="19.23"/><rect class="cls-1" x="480.77" y="307.69" width="19.23" height="19.23"/><rect class="cls-1" x="480.77" y="326.92" width="19.23" height="19.23"/><rect class="cls-1" x="480.77" y="346.15" width="19.23" height="19.23"/><rect class="cls-1" x="480.77" y="480.77" width="19.23" height="19.23"/><rect class="cls-1" x="480.77" y="461.54" width="19.23" height="19.23"/><rect class="cls-1" x="480.77" y="442.31" width="19.23" height="19.23"/><rect class="cls-1" x="480.77" y="423.08" width="19.23" height="19.23"/><rect class="cls-1" x="480.77" y="403.85" width="19.23" height="19.23"/><rect class="cls-1" x="480.77" y="384.62" width="19.23" height="19.23"/><rect class="cls-1" x="480.77" y="365.38" width="19.23" height="19.24"/><rect class="cls-1" x="461.54" y="365.38" width="19.23" height="19.24"/><rect class="cls-1" x="442.31" y="365.38" width="19.23" height="19.24"/><rect class="cls-1" x="423.08" y="365.38" width="19.23" height="19.24"/><rect class="cls-1" x="403.85" y="365.38" width="19.23" height="19.24"/><rect class="cls-1" x="384.62" y="365.38" width="19.23" height="19.24"/><rect x="173.08" y="365.38" width="19.23" height="19.24"/><rect x="192.31" y="365.38" width="19.23" height="19.24"/><rect x="173.08" y="384.62" width="19.23" height="19.23"/><rect x="192.31" y="384.62" width="19.23" height="19.23"/><rect x="211.54" y="384.62" width="19.23" height="19.23"/><rect x="211.54" y="365.38" width="19.23" height="19.24"/><rect x="211.54" y="346.15" width="19.23" height="19.23"/><rect x="192.31" y="346.15" width="19.23" height="19.23"/><rect x="173.08" y="346.15" width="19.23" height="19.23"/><rect x="346.15" y="230.77" width="19.23" height="19.23"/><rect x="346.15" y="211.54" width="19.23" height="19.23"/><rect x="346.15" y="192.31" width="19.23" height="19.23"/><rect x="346.15" y="173.08" width="19.23" height="19.23"/><rect x="346.15" y="153.85" width="19.23" height="19.23"/><rect x="346.15" y="134.62" width="19.23" height="19.23"/><rect x="346.15" y="115.38" width="19.23" height="19.24"/><rect x="326.92" y="250" width="19.23" height="19.23"/><rect x="326.92" y="230.77" width="19.23" height="19.23"/><rect x="326.92" y="211.54" width="19.23" height="19.23"/><rect x="326.92" y="192.31" width="19.23" height="19.23"/><rect x="326.92" y="173.08" width="19.23" height="19.23"/><rect x="326.92" y="153.85" width="19.23" height="19.23"/><rect x="326.92" y="134.62" width="19.23" height="19.23"/><rect x="326.92" y="115.38" width="19.23" height="19.24"/><rect x="326.92" y="96.15" width="19.23" height="19.23"/><rect x="307.69" y="269.23" width="19.23" height="19.23"/><rect x="307.69" y="250" width="19.23" height="19.23"/><rect x="307.69" y="230.77" width="19.23" height="19.23"/><rect x="307.69" y="211.54" width="19.23" height="19.23"/><rect x="307.69" y="192.31" width="19.23" height="19.23"/><rect x="307.69" y="173.08" width="19.23" height="19.23"/><rect x="307.69" y="153.85" width="19.23" height="19.23"/><rect x="307.69" y="134.62" width="19.23" height="19.23"/><rect x="307.69" y="115.38" width="19.23" height="19.24"/><rect x="307.69" y="96.15" width="19.23" height="19.23"/><rect x="307.69" y="76.92" width="19.23" height="19.23"/><rect x="288.46" y="269.23" width="19.23" height="19.23"/><rect x="288.46" y="250" width="19.23" height="19.23"/><rect x="288.46" y="230.77" width="19.23" height="19.23"/><rect x="288.46" y="211.54" width="19.23" height="19.23"/><rect x="288.46" y="134.62" width="19.23" height="19.23"/><rect x="288.46" y="115.38" width="19.23" height="19.24"/><rect x="288.46" y="96.15" width="19.23" height="19.23"/><rect x="288.46" y="76.92" width="19.23" height="19.23"/><rect x="269.23" y="269.23" width="19.23" height="19.23"/><rect x="269.23" y="250" width="19.23" height="19.23"/><rect x="269.23" y="230.77" width="19.23" height="19.23"/><rect x="269.23" y="115.38" width="19.23" height="19.24"/><rect x="269.23" y="96.15" width="19.23" height="19.23"/><rect x="269.23" y="76.92" width="19.23" height="19.23"/><rect x="250" y="269.23" width="19.23" height="19.23"/><rect x="250" y="250" width="19.23" height="19.23"/><rect x="250" y="230.77" width="19.23" height="19.23"/><rect x="250" y="115.38" width="19.23" height="19.24"/><rect x="250" y="96.15" width="19.23" height="19.23"/><rect x="250" y="76.92" width="19.23" height="19.23"/><rect x="230.77" y="269.23" width="19.23" height="19.23"/><rect x="230.77" y="250" width="19.23" height="19.23"/><rect x="230.77" y="230.77" width="19.23" height="19.23"/><rect x="230.77" y="115.38" width="19.23" height="19.24"/><rect x="230.77" y="96.15" width="19.23" height="19.23"/><rect x="230.77" y="76.92" width="19.23" height="19.23"/><rect x="211.54" y="326.92" width="19.23" height="19.23"/><rect x="211.54" y="307.69" width="19.23" height="19.23"/><rect x="211.54" y="288.46" width="19.23" height="19.23"/><rect x="211.54" y="269.23" width="19.23" height="19.23"/><rect x="211.54" y="250" width="19.23" height="19.23"/><rect x="211.54" y="230.77" width="19.23" height="19.23"/><rect x="211.54" y="211.54" width="19.23" height="19.23"/><rect x="211.54" y="192.31" width="19.23" height="19.23"/><rect x="211.54" y="173.08" width="19.23" height="19.23"/><rect x="211.54" y="153.85" width="19.23" height="19.23"/><rect x="211.54" y="134.62" width="19.23" height="19.23"/><rect x="211.54" y="115.38" width="19.23" height="19.24"/><rect x="211.54" y="96.15" width="19.23" height="19.23"/><rect x="211.54" y="76.92" width="19.23" height="19.23"/><rect x="192.31" y="326.92" width="19.23" height="19.23"/><rect x="192.31" y="307.69" width="19.23" height="19.23"/><rect x="192.31" y="288.46" width="19.23" height="19.23"/><rect x="192.31" y="269.23" width="19.23" height="19.23"/><rect x="192.31" y="250" width="19.23" height="19.23"/><rect x="192.31" y="230.77" width="19.23" height="19.23"/><rect x="192.31" y="211.54" width="19.23" height="19.23"/><rect x="192.31" y="192.31" width="19.23" height="19.23"/><rect x="192.31" y="173.08" width="19.23" height="19.23"/><rect x="192.31" y="153.85" width="19.23" height="19.23"/><rect x="192.31" y="134.62" width="19.23" height="19.23"/><rect x="192.31" y="115.38" width="19.23" height="19.24"/><rect x="192.31" y="96.15" width="19.23" height="19.23"/><rect x="192.31" y="76.92" width="19.23" height="19.23"/><rect x="173.08" y="326.92" width="19.23" height="19.23"/><rect x="173.08" y="307.69" width="19.23" height="19.23"/><rect x="173.08" y="288.46" width="19.23" height="19.23"/><rect x="173.08" y="269.23" width="19.23" height="19.23"/><rect x="173.08" y="250" width="19.23" height="19.23"/><rect x="173.08" y="230.77" width="19.23" height="19.23"/><rect x="173.08" y="211.54" width="19.23" height="19.23"/><rect x="173.08" y="192.31" width="19.23" height="19.23"/><rect x="173.08" y="173.08" width="19.23" height="19.23"/><rect x="173.08" y="153.85" width="19.23" height="19.23"/><rect x="173.08" y="134.62" width="19.23" height="19.23"/><rect x="173.08" y="115.38" width="19.23" height="19.24"/><rect x="173.08" y="96.15" width="19.23" height="19.23"/><rect x="173.08" y="76.92" width="19.23" height="19.23"/></svg>