<svg id="Layer_2" data-name="Layer 2" xmlns="http://www.w3.org/2000/svg" viewBox="0 0 500 500"><defs><style>.cls-1{fill:#f15d22;}.cls-2{fill:#00b156;}.cls-3{fill:#fdb714;}.cls-4{fill:#f47e4d;}.cls-5{fill:#f26924;}</style></defs><rect class="cls-1" x="480.77" y="480.77" width="19.23" height="19.23"/><rect class="cls-1" x="480.77" y="461.54" width="19.23" height="19.23"/><rect class="cls-1" x="480.77" y="38.46" width="19.23" height="19.23"/><rect class="cls-1" x="480.77" y="19.23" width="19.23" height="19.23"/><rect class="cls-1" x="480.77" width="19.23" height="19.23"/><rect class="cls-1" x="461.54" y="480.77" width="19.23" height="19.23"/><rect class="cls-1" x="461.54" y="461.54" width="19.23" height="19.23"/><rect class="cls-2" x="461.54" y="365.38" width="19.23" height="19.24"/><rect class="cls-1" x="461.54" y="19.23" width="19.23" height="19.23"/><rect class="cls-1" x="461.54" width="19.23" height="19.23"/><rect class="cls-1" x="442.31" y="480.77" width="19.23" height="19.23"/><rect class="cls-3" x="442.31" y="211.54" width="19.23" height="19.23"/><rect class="cls-3" x="442.31" y="192.31" width="19.23" height="19.23"/><rect class="cls-4" x="442.31" y="96.15" width="19.23" height="19.23"/><rect class="cls-1" x="442.31" width="19.23" height="19.23"/><rect class="cls-2" x="423.08" y="288.46" width="19.23" height="19.23"/><rect class="cls-3" x="423.08" y="211.54" width="19.23" height="19.23"/><rect class="cls-4" x="403.85" y="442.31" width="19.23" height="19.23"/><rect class="cls-4" x="384.62" y="134.62" width="19.23" height="19.23"/><rect class="cls-2" x="346.15" y="365.38" width="19.23" height="19.24"/><rect class="cls-4" x="346.15" y="57.69" width="19.23" height="19.23"/><rect class="cls-5" x="326.92" y="173.08" width="19.23" height="19.23"/><rect class="cls-4" x="326.92" y="38.46" width="19.23" height="19.23"/><rect class="cls-5" x="307.69" y="423.08" width="19.23" height="19.23"/><rect class="cls-5" x="307.69" y="211.54" width="19.23" height="19.23"/><rect class="cls-5" x="307.69" y="192.31" width="19.23" height="19.23"/><rect class="cls-5" x="307.69" y="173.08" width="19.23" height="19.23"/><rect class="cls-5" x="288.46" y="423.08" width="19.23" height="19.23"/><rect class="cls-5" x="288.46" y="403.85" width="19.23" height="19.23"/><rect class="cls-4" x="288.46" y="307.69" width="19.23" height="19.23"/><rect class="cls-5" x="288.46" y="230.77" width="19.23" height="19.23"/><rect class="cls-5" x="269.23" y="403.85" width="19.23" height="19.23"/><rect class="cls-5" x="269.23" y="384.62" width="19.23" height="19.23"/><rect class="cls-4" x="230.77" y="288.46" width="19.23" height="19.23"/><rect class="cls-2" x="230.77" y="57.69" width="19.23" height="19.23"/><rect class="cls-2" x="211.54" y="173.08" width="19.23" height="19.23"/><rect class="cls-2" x="211.54" y="57.69" width="19.23" height="19.23"/><rect class="cls-2" x="192.31" y="423.08" width="19.23" height="19.23"/><rect class="cls-2" x="192.31" y="173.08" width="19.23" height="19.23"/><rect class="cls-4" x="173.08" y="230.77" width="19.23" height="19.23"/><rect class="cls-4" x="134.62" y="76.92" width="19.23" height="19.23"/><rect class="cls-3" x="115.38" y="442.31" width="19.24" height="19.23"/><rect class="cls-4" x="115.38" y="346.15" width="19.24" height="19.23"/><rect class="cls-3" x="96.15" y="461.54" width="19.23" height="19.23"/><rect class="cls-3" x="96.15" y="442.31" width="19.23" height="19.23"/><rect class="cls-2" x="96.15" y="19.23" width="19.23" height="19.23"/><rect class="cls-3" x="76.92" y="461.54" width="19.23" height="19.23"/><rect class="cls-2" x="76.92" y="307.69" width="19.23" height="19.23"/><rect class="cls-4" x="76.92" y="211.54" width="19.23" height="19.23"/><rect class="cls-3" x="76.92" y="115.38" width="19.23" height="19.24"/><rect class="cls-2" x="57.69" y="307.69" width="19.23" height="19.23"/><rect class="cls-2" x="57.69" y="288.46" width="19.23" height="19.23"/><rect class="cls-3" x="57.69" y="134.62" width="19.23" height="19.23"/><rect class="cls-3" x="57.69" y="115.38" width="19.23" height="19.24"/><rect class="cls-1" x="38.46" width="19.23" height="19.23"/><rect class="cls-1" x="19.23" y="480.77" width="19.23" height="19.23"/><rect class="cls-1" x="19.23" y="461.54" width="19.23" height="19.23"/><rect class="cls-1" x="19.23" y="19.23" width="19.23" height="19.23"/><rect class="cls-1" x="19.23" width="19.23" height="19.23"/><rect class="cls-1" y="480.77" width="19.23" height="19.23"/><rect class="cls-1" y="461.54" width="19.23" height="19.23"/><rect class="cls-1" y="442.31" width="19.23" height="19.23"/><rect class="cls-4" y="288.46" width="19.23" height="19.23"/><rect class="cls-1" y="38.46" width="19.23" height="19.23"/><rect class="cls-1" y="19.23" width="19.23" height="19.23"/><rect class="cls-1" width="19.23" height="19.23"/></svg>